<svg width="185" height="191" viewBox="0 0 185 191" fill="none" xmlns="http://www.w3.org/2000/svg">
<mask id="path-1-inside-1_424_3166" fill="white">
<path d="M27.9021 69.9828C33.8973 55.3029 52.7847 49.0709 70.4537 55.7569C71.0361 53.0159 71.8785 50.2561 72.9949 47.5224C80.8781 28.2194 99.4027 17.5263 114.37 23.6389C126.939 28.7719 133 44.1228 129.953 60.3417C136.727 58.5471 143.554 58.4107 149.005 60.6369C163.973 66.7497 171.152 83.8388 165.039 98.8067C161.738 106.89 152.828 114.015 142.973 117.899C147.259 127.772 148.739 139.085 145.536 146.929C139.423 161.897 122.334 169.075 107.366 162.962C101.896 160.728 96.9671 155.623 93.2101 149.315C84.205 161.335 70.0072 166.895 57.9413 161.967C42.9737 155.855 36.9571 135.92 44.5031 117.443C45.5966 114.766 46.9163 112.267 48.4168 109.968C31.0626 102.395 21.8973 84.6871 27.9021 69.9828ZM91.7714 99.0138C93.1984 100.225 94.4885 101.597 95.6322 103.105C97.366 101.623 99.2611 100.356 101.272 99.3208C100.885 97.7741 100.623 96.1926 100.493 94.5914C98.1458 95.1274 95.7791 95.3467 93.439 95.2275C93.2873 95.669 93.1233 96.1091 92.9449 96.5457C92.597 97.3976 92.2034 98.2197 91.7714 99.0138Z"/>
</mask>
<path d="M27.9021 69.9828C33.8973 55.3029 52.7847 49.0709 70.4537 55.7569C71.0361 53.0159 71.8785 50.2561 72.9949 47.5224C80.8781 28.2194 99.4027 17.5263 114.37 23.6389C126.939 28.7719 133 44.1228 129.953 60.3417C136.727 58.5471 143.554 58.4107 149.005 60.6369C163.973 66.7497 171.152 83.8388 165.039 98.8067C161.738 106.89 152.828 114.015 142.973 117.899C147.259 127.772 148.739 139.085 145.536 146.929C139.423 161.897 122.334 169.075 107.366 162.962C101.896 160.728 96.9671 155.623 93.2101 149.315C84.205 161.335 70.0072 166.895 57.9413 161.967C42.9737 155.855 36.9571 135.92 44.5031 117.443C45.5966 114.766 46.9163 112.267 48.4168 109.968C31.0626 102.395 21.8973 84.6871 27.9021 69.9828ZM91.7714 99.0138C93.1984 100.225 94.4885 101.597 95.6322 103.105C97.366 101.623 99.2611 100.356 101.272 99.3208C100.885 97.7741 100.623 96.1926 100.493 94.5914C98.1458 95.1274 95.7791 95.3467 93.439 95.2275C93.2873 95.669 93.1233 96.1091 92.9449 96.5457C92.597 97.3976 92.2034 98.2197 91.7714 99.0138Z" fill="#321FC6"/>
<path d="M27.9021 69.9828L23.5099 68.189L23.5098 68.1891L27.9021 69.9828ZM70.4537 55.7569L68.7746 60.1942L73.9456 62.151L75.0946 56.7429L70.4537 55.7569ZM72.9949 47.5224L68.6026 45.7287L68.6026 45.7287L72.9949 47.5224ZM114.37 23.6389L116.164 19.2466L116.164 19.2466L114.37 23.6389ZM129.953 60.3417L125.29 59.4656L123.902 66.8528L131.168 64.9279L129.953 60.3417ZM149.005 60.6369L150.798 56.2446L149.005 60.6369ZM165.039 98.8067L169.431 100.601L169.431 100.6L165.039 98.8067ZM142.973 117.899L141.233 113.485L136.666 115.285L138.621 119.788L142.973 117.899ZM145.536 146.929L149.928 148.723L149.928 148.723L145.536 146.929ZM107.366 162.962L105.572 167.354L105.572 167.354L107.366 162.962ZM93.2101 149.315L97.2863 146.887L93.661 140.8L89.413 146.47L93.2101 149.315ZM57.9413 161.967L56.1475 166.36L56.1476 166.36L57.9413 161.967ZM44.5031 117.443L40.1108 115.649L40.1108 115.649L44.5031 117.443ZM48.4168 109.968L52.39 112.561L55.4559 107.863L50.3144 105.619L48.4168 109.968ZM91.7714 99.0138L87.6037 96.7466L85.7607 100.135L88.7009 102.631L91.7714 99.0138ZM95.6322 103.105L91.8514 105.972L94.8913 109.981L98.7156 106.711L95.6322 103.105ZM101.272 99.3208L103.443 103.539L106.786 101.819L105.875 98.1712L101.272 99.3208ZM100.493 94.5914L105.222 94.2083L104.78 88.7461L99.437 89.966L100.493 94.5914ZM93.439 95.2275L93.6804 90.4892L90.113 90.3074L88.9521 93.6856L93.439 95.2275ZM92.9449 96.5457L97.3372 98.3396L97.3372 98.3395L92.9449 96.5457ZM27.9021 69.9828L32.2944 71.7765C37.0331 60.1733 52.7415 54.1273 68.7746 60.1942L70.4537 55.7569L72.1328 51.3195C52.8278 44.0145 30.7615 50.4325 23.5099 68.189L27.9021 69.9828ZM70.4537 55.7569L75.0946 56.7429C75.6182 54.2782 76.3774 51.7887 77.3871 49.3162L72.9949 47.5224L68.6026 45.7287C67.3796 48.7235 66.4539 51.7537 65.8129 54.7709L70.4537 55.7569ZM72.9949 47.5224L77.3871 49.3162C84.7309 31.334 101.009 23.307 112.577 28.0312L114.37 23.6389L116.164 19.2466C97.7967 11.7456 77.0252 25.1048 68.6026 45.7287L72.9949 47.5224ZM114.37 23.6389L112.577 28.0312C122.32 32.0105 128.089 44.5696 125.29 59.4656L129.953 60.3417L134.616 61.2177C137.912 43.676 131.558 25.5333 116.164 19.2466L114.37 23.6389ZM129.953 60.3417L131.168 64.9279C137.352 63.2895 143.043 63.3271 147.211 65.0291L149.005 60.6369L150.798 56.2446C144.064 53.4943 136.101 53.8048 128.738 55.7555L129.953 60.3417ZM149.005 60.6369L147.211 65.0291C159.753 70.1513 165.769 84.471 160.647 97.013L165.039 98.8067L169.431 100.6C176.535 83.2066 168.192 63.348 150.798 56.2446L149.005 60.6369ZM165.039 98.8067L160.647 97.013C158.017 103.452 150.419 109.865 141.233 113.485L142.973 117.899L144.712 122.313C155.236 118.165 165.459 110.327 169.431 100.601L165.039 98.8067ZM142.973 117.899L138.621 119.788C142.667 129.108 143.658 138.979 141.144 145.135L145.536 146.929L149.928 148.723C153.821 139.191 151.851 126.436 147.325 116.009L142.973 117.899ZM145.536 146.929L141.144 145.135C136.022 157.677 121.702 163.692 109.16 158.57L107.366 162.962L105.572 167.354C122.966 174.458 142.825 166.116 149.928 148.723L145.536 146.929ZM107.366 162.962L109.16 158.57C105.011 156.875 100.763 152.725 97.2863 146.887L93.2101 149.315L89.1338 151.742C93.1712 158.522 98.7816 164.581 105.572 167.354L107.366 162.962ZM93.2101 149.315L89.413 146.47C81.2851 157.319 69.2235 161.45 59.735 157.575L57.9413 161.967L56.1476 166.36C70.7908 172.34 87.1248 165.35 97.0071 152.159L93.2101 149.315ZM57.9413 161.967L59.7351 157.575C48.0124 152.788 41.9686 136.198 48.8953 119.237L44.5031 117.443L40.1108 115.649C31.9457 135.643 37.935 158.922 56.1475 166.36L57.9413 161.967ZM44.5031 117.443L48.8953 119.237C49.8743 116.84 51.0535 114.608 52.39 112.561L48.4168 109.968L44.4437 107.375C42.7792 109.925 41.3188 112.691 40.1108 115.649L44.5031 117.443ZM48.4168 109.968L50.3144 105.619C34.5654 98.7466 27.5482 83.3988 32.2944 71.7765L27.9021 69.9828L23.5098 68.1891C16.2464 85.9754 27.5598 106.042 46.5192 114.316L48.4168 109.968ZM91.7714 99.0138L88.7009 102.631C89.8558 103.611 90.9095 104.729 91.8514 105.972L95.6322 103.105L99.4129 100.239C98.0675 98.4643 96.5409 96.8393 94.8419 95.3969L91.7714 99.0138ZM95.6322 103.105L98.7156 106.711C100.166 105.47 101.755 104.408 103.443 103.539L101.272 99.3208L99.1005 95.1023C96.7675 96.303 94.5656 97.7747 92.5488 99.4994L95.6322 103.105ZM101.272 99.3208L105.875 98.1712C105.55 96.8719 105.33 95.5467 105.222 94.2083L100.493 94.5914L95.7642 94.9746C95.9152 96.8386 96.2205 98.6764 96.6686 100.47L101.272 99.3208ZM100.493 94.5914L99.437 89.966C97.4912 90.4103 95.5612 90.585 93.6804 90.4892L93.439 95.2275L93.1976 99.9657C95.9969 100.108 98.8003 99.8445 101.549 99.2168L100.493 94.5914ZM93.439 95.2275L88.9521 93.6856C88.8269 94.0499 88.6942 94.4055 88.5527 94.752L92.9449 96.5457L97.3372 98.3395C97.5523 97.8127 97.7476 97.2882 97.9259 96.7694L93.439 95.2275ZM92.9449 96.5457L88.5527 94.7519C88.2746 95.433 87.957 96.0972 87.6037 96.7466L91.7714 99.0138L95.9391 101.281C96.4498 100.342 96.9195 99.3622 97.3372 98.3396L92.9449 96.5457Z" fill="#4362FF" mask="url(#path-1-inside-1_424_3166)"/>
<path d="M102.21 105.73C102.546 105.908 103.679 107.142 105.006 109.555C106.849 112.908 108.436 115.242 109.103 116.253C110.371 118.174 112.185 121.59 113.908 125.34C116.098 130.857 117.833 135.728 118.125 136.683C118.258 137.168 118.361 137.655 118.592 138.668" stroke="#4362FF" stroke-width="4.74443" stroke-linecap="round"/>
<path d="M91.9847 104.012C91.4493 104.097 89.8269 104.62 87.3994 106.858C82.7864 111.11 79.6536 114.427 79.0628 114.948C76.8129 116.933 74.4338 121.084 71.6997 125.509C71.162 126.473 71.0201 126.889 70.8801 127.269C70.74 127.65 70.6061 127.982 70.0996 129.128" stroke="#4362FF" stroke-width="4.74443" stroke-linecap="round"/>
<path d="M90.6791 95.9051C90.2999 95.8375 88.3551 94.881 86.7257 93.9863C85.4514 93.2866 84.2735 92.5861 82.5502 91.8969C79.002 90.4777 76.1881 89.2598 72.8911 87.7513C71.0942 86.9292 69.7754 86.6047 67.5892 85.835C64.9921 84.9208 63.0904 84.4535 61.5268 84.1417C61.1002 84.0754 60.5799 84.0163 59.786 83.9744C58.9922 83.9326 57.9405 83.9097 56.7866 84.0949" stroke="#4362FF" stroke-width="4.74443" stroke-linecap="round"/>
<path d="M97.6963 87.9001C97.6963 84.7859 97.785 77.7635 97.8757 75.4641C97.9515 73.5412 98.4939 72.1224 99.1475 69.5008C99.5474 67.8966 100.001 66.2547 100.627 63.9432C101.244 61.6651 101.792 59.9059 102.361 58.2763C103.124 56.3743 104.01 54.6757 104.818 53.242C105.179 52.6864 105.437 52.4799 106.051 52.1289" stroke="#4362FF" stroke-width="4.74443" stroke-linecap="round"/>
<path d="M106.137 95.2228C106.653 95.0661 108.457 94.3079 109.955 93.6044C111.651 92.8073 113.235 92.1947 115.42 91.489C117.021 90.9717 118.605 90.7984 120.658 90.3968C123.268 89.8861 126.556 89.0803 128.849 88.7907C129.491 88.7207 130.199 88.6422 131.429 88.5774C132.659 88.5127 134.39 88.4641 136.174 88.4141" stroke="#4362FF" stroke-width="4.74443" stroke-linecap="round"/>
<circle cx="98.2255" cy="97.5109" r="16.8074" transform="rotate(-6.39223 98.2255 97.5109)" fill="#FFC943" stroke="#FFB600" stroke-width="4.74443"/>
</svg>
