<svg width="164" height="71" viewBox="0 0 164 71" fill="none" xmlns="http://www.w3.org/2000/svg">
<circle cx="81.464" cy="20.189" r="17.8269" fill="#FFC943" stroke="#FFB600" stroke-width="4.72424"/>
<mask id="path-2-outside-1_424_3168" maskUnits="userSpaceOnUse" x="-0.356445" y="9.94531" width="164" height="52" fill="black">
<rect fill="white" x="-0.356445" y="9.94531" width="164" height="52"/>
<path d="M105.478 21.1972C130.907 13.6876 153.063 12.821 154.966 19.2617C156.138 23.2304 149.347 29.046 138.013 34.6836C150.444 36.69 158.607 40.2087 158.671 44.333C158.775 51.0484 137.367 56.8252 110.855 57.2363C99.8877 57.4063 89.7651 56.6299 81.6576 55.1875C73.5501 56.6299 63.4275 57.4063 52.4603 57.2363C25.9483 56.8252 4.54027 51.0484 4.64393 44.333C4.7079 40.2087 12.8709 36.6899 25.3021 34.6836C13.9683 29.046 7.17703 23.2304 8.34901 19.2617C10.2523 12.8209 32.4092 13.6874 57.8383 21.1972C66.7749 23.8365 74.925 26.9477 81.6566 30.1494C88.3887 26.9474 96.5403 23.8367 105.478 21.1972Z"/>
</mask>
<path d="M105.478 21.1972C130.907 13.6876 153.063 12.821 154.966 19.2617C156.138 23.2304 149.347 29.046 138.013 34.6836C150.444 36.69 158.607 40.2087 158.671 44.333C158.775 51.0484 137.367 56.8252 110.855 57.2363C99.8877 57.4063 89.7651 56.6299 81.6576 55.1875C73.5501 56.6299 63.4275 57.4063 52.4603 57.2363C25.9483 56.8252 4.54027 51.0484 4.64393 44.333C4.7079 40.2087 12.8709 36.6899 25.3021 34.6836C13.9683 29.046 7.17703 23.2304 8.34901 19.2617C10.2523 12.8209 32.4092 13.6874 57.8383 21.1972C66.7749 23.8365 74.925 26.9477 81.6566 30.1494C88.3887 26.9474 96.5403 23.8367 105.478 21.1972Z" fill="#FF87FF"/>
<path d="M105.478 21.1972L104.163 16.7439L104.163 16.7439L105.478 21.1972ZM154.966 19.2617L159.42 17.9467L159.419 17.9457L154.966 19.2617ZM138.013 34.6836L135.945 30.526L123.002 36.9642L137.273 39.2677L138.013 34.6836ZM158.671 44.333L163.314 44.2613L163.314 44.261L158.671 44.333ZM110.855 57.2363L110.927 61.8792L110.927 61.8792L110.855 57.2363ZM81.6576 55.1875L82.471 50.6158L81.6576 50.4711L80.8442 50.6158L81.6576 55.1875ZM52.4603 57.2363L52.3883 61.8792L52.3884 61.8792L52.4603 57.2363ZM4.64393 44.333L0.00100672 44.261L0.00100135 44.2613L4.64393 44.333ZM25.3021 34.6836L26.042 39.2677L40.3138 36.9643L27.3701 30.526L25.3021 34.6836ZM8.34901 19.2617L3.89589 17.9458L3.89565 17.9466L8.34901 19.2617ZM57.8383 21.1972L59.1535 16.7439L59.1534 16.7439L57.8383 21.1972ZM81.6566 30.1494L79.6622 34.3427L81.6567 35.2913L83.6511 34.3427L81.6566 30.1494ZM105.478 21.1972L106.793 25.6506C119.25 21.9719 130.755 19.9693 139.226 19.638C143.498 19.4709 146.73 19.7413 148.847 20.2873C151.296 20.9188 150.781 21.4849 150.513 20.5776L154.966 19.2617L159.419 17.9457C158.2 13.8181 154.202 12.0773 151.166 11.2945C147.799 10.4262 143.546 10.175 138.863 10.3581C129.422 10.7274 117.135 12.9129 104.163 16.7439L105.478 21.1972ZM154.966 19.2617L150.513 20.5767C150.341 19.9943 150.617 19.8002 150.328 20.3317C150.029 20.8797 149.357 21.7471 148.084 22.8858C145.555 25.1477 141.436 27.7948 135.945 30.526L138.013 34.6836L140.081 38.8411C145.924 35.9348 150.868 32.8553 154.275 29.8079C155.97 28.2919 157.484 26.6089 158.483 24.7741C159.492 22.9227 160.177 20.5134 159.42 17.9467L154.966 19.2617ZM138.013 34.6836L137.273 39.2677C143.294 40.2396 147.984 41.5368 151.05 42.9376C152.593 43.6427 153.485 44.2671 153.928 44.6976C154.357 45.1144 154.038 45.01 154.028 44.405L158.671 44.333L163.314 44.261C163.273 41.5939 161.909 39.503 160.401 38.0374C158.907 36.5855 156.969 35.4314 154.909 34.4905C150.77 32.5993 145.163 31.134 138.753 30.0994L138.013 34.6836ZM158.671 44.333L154.028 44.4046C154.014 43.4584 154.674 43.8452 152.525 45.178C150.667 46.3302 147.662 47.5518 143.534 48.6656C135.349 50.8743 123.77 52.392 110.783 52.5934L110.855 57.2363L110.927 61.8792C124.452 61.6695 136.832 60.0932 145.954 57.6318C150.479 56.4107 154.464 54.9032 157.419 53.0707C160.083 51.4188 163.381 48.5652 163.314 44.2613L158.671 44.333ZM110.855 57.2363L110.783 52.5934C100.057 52.7597 90.2363 51.9973 82.471 50.6158L81.6576 55.1875L80.8442 59.7592C89.2939 61.2624 99.7186 62.053 110.927 61.8792L110.855 57.2363ZM81.6576 55.1875L80.8442 50.6158C73.0789 51.9973 63.2583 52.7597 52.5323 52.5934L52.4603 57.2363L52.3884 61.8792C63.5967 62.053 74.0212 61.2625 82.471 59.7592L81.6576 55.1875ZM52.4603 57.2363L52.5323 52.5934C39.5453 52.392 27.9659 50.8743 19.781 48.6656C15.6533 47.5518 12.6485 46.3302 10.7904 45.178C8.64107 43.8453 9.30146 43.4585 9.28686 44.4046L4.64393 44.333L0.00100135 44.2613C-0.0654315 48.5652 3.2321 51.4188 5.89618 53.0707C8.85137 54.9032 12.8361 56.4107 17.3615 57.6319C26.4828 60.0932 38.8634 61.6695 52.3883 61.8792L52.4603 57.2363ZM4.64393 44.333L9.28685 44.405C9.27747 45.0099 8.95787 45.1143 9.38678 44.6975C9.82975 44.267 10.7217 43.6427 12.265 42.9376C15.331 41.5368 20.0206 40.2396 26.042 39.2677L25.3021 34.6836L24.5623 30.0994C18.1524 31.1339 12.5449 32.5993 8.40563 34.4905C6.34624 35.4314 4.40853 36.5855 2.91447 38.0374C1.40634 39.503 0.0423741 41.5939 0.00100673 44.261L4.64393 44.333ZM25.3021 34.6836L27.3701 30.526C21.8792 27.7948 17.7605 25.1477 15.2315 22.8857C13.9585 21.7471 13.286 20.8796 12.9875 20.3317C12.698 19.8002 12.9744 19.9944 12.8024 20.5768L8.34901 19.2617L3.89565 17.9466C3.13767 20.5133 3.82345 22.9227 4.83192 24.7741C5.83136 26.6089 7.3453 28.2919 9.04026 29.8079C12.4474 32.8553 17.3912 35.9348 23.2341 38.8411L25.3021 34.6836ZM8.34901 19.2617L12.8021 20.5776C12.534 21.4849 12.0192 20.9188 14.4682 20.2872C16.5855 19.7412 19.8179 19.4708 24.09 19.6379C32.5612 19.9692 44.0665 21.9718 56.5231 25.6506L57.8383 21.1972L59.1534 16.7439C46.1809 12.9128 33.8933 10.7273 24.4529 10.3581C19.7692 10.1749 15.5163 10.4262 12.1492 11.2945C9.11377 12.0772 5.11563 13.8181 3.89589 17.9458L8.34901 19.2617ZM57.8383 21.1972L56.5231 25.6506C65.2558 28.2296 73.1756 31.2576 79.6622 34.3427L81.6566 30.1494L83.651 25.956C76.6745 22.6379 68.294 19.4433 59.1535 16.7439L57.8383 21.1972ZM81.6566 30.1494L83.6511 34.3427C90.1378 31.2574 98.0589 28.23 106.793 25.6506L105.478 21.1972L104.163 16.7439C95.0216 19.4435 86.6396 22.6373 79.6621 25.9561L81.6566 30.1494Z" fill="#A32BA3" mask="url(#path-2-outside-1_424_3168)"/>
<mask id="path-4-outside-2_424_3168" maskUnits="userSpaceOnUse" x="24.6792" y="25.4844" width="114" height="45" fill="black">
<rect fill="white" x="24.6792" y="25.4844" width="114" height="45"/>
<path d="M83.3093 30.4959C84.2287 30.5144 85.117 30.5556 85.9733 30.617C102.459 31.4923 121.218 38.682 129.545 47.6541C138.622 57.4348 131.864 65.6287 114.452 65.9559C103.724 66.1574 91.4551 63.3248 81.4929 58.8338C71.2627 63.2872 58.8582 66.0856 48.1774 65.8709C30.7865 65.5213 24.5524 57.3191 34.2536 47.5506C43.9551 37.782 65.9182 30.1464 83.3093 30.4959Z"/>
</mask>
<path d="M83.3093 30.4959C84.2287 30.5144 85.117 30.5556 85.9733 30.617C102.459 31.4923 121.218 38.682 129.545 47.6541C138.622 57.4348 131.864 65.6287 114.452 65.9559C103.724 66.1574 91.4551 63.3248 81.4929 58.8338C71.2627 63.2872 58.8582 66.0856 48.1774 65.8709C30.7865 65.5213 24.5524 57.3191 34.2536 47.5506C43.9551 37.782 65.9182 30.1464 83.3093 30.4959Z" fill="#FF87FF"/>
<path d="M83.3093 30.4959L83.3945 26.2571H83.3945L83.3093 30.4959ZM85.9733 30.617L85.6699 34.8458L85.7092 34.8487L85.7486 34.8507L85.9733 30.617ZM129.545 47.6541L132.652 44.7701L132.652 44.7701L129.545 47.6541ZM114.452 65.9559L114.531 70.1948H114.532L114.452 65.9559ZM81.4929 58.8338L83.2353 54.9687L81.5229 54.1967L79.8006 54.9465L81.4929 58.8338ZM48.1774 65.8709L48.0922 70.1098L48.0922 70.1098L48.1774 65.8709ZM34.2536 47.5506L31.2454 44.563L31.2453 44.5631L34.2536 47.5506ZM83.3093 30.4959L83.224 34.7348C84.0719 34.7518 84.8875 34.7897 85.6699 34.8458L85.9733 30.617L86.2768 26.3882C85.3466 26.3214 84.3854 26.277 83.3945 26.2571L83.3093 30.4959ZM85.9733 30.617L85.7486 34.8507C93.5012 35.2624 101.871 37.17 109.283 40.051C116.761 42.9577 122.879 46.7042 126.437 50.5382L129.545 47.6541L132.652 44.7701C127.884 39.6319 120.459 35.2976 112.355 32.1476C104.184 28.9718 94.9313 26.8469 86.1981 26.3833L85.9733 30.617ZM129.545 47.6541L126.437 50.5382C128.369 52.6201 129.102 54.2462 129.286 55.3151C129.444 56.2277 129.253 56.9348 128.661 57.6526C127.164 59.4675 122.779 61.5589 114.372 61.7169L114.452 65.9559L114.532 70.1948C123.537 70.0256 131.237 67.8565 135.203 63.0475C137.342 60.4534 138.227 57.2577 137.642 53.8728C137.085 50.6444 135.259 47.5785 132.652 44.7701L129.545 47.6541ZM114.452 65.9559L114.372 61.7169C104.352 61.9052 92.7031 59.2368 83.2353 54.9687L81.4929 58.8338L79.7505 62.6989C90.2071 67.4127 103.096 70.4097 114.531 70.1948L114.452 65.9559ZM81.4929 58.8338L79.8006 54.9465C70.039 59.1959 58.2398 61.8326 48.2626 61.6321L48.1774 65.8709L48.0922 70.1098C59.4766 70.3385 72.4864 67.3785 83.1851 62.7211L81.4929 58.8338ZM48.1774 65.8709L48.2627 61.6321C44.216 61.5507 41.0167 61.0134 38.6557 60.2172C36.2589 59.4089 35.0052 58.4324 34.4314 57.6774C33.9643 57.0628 33.7904 56.418 34.0168 55.4609C34.2823 54.3384 35.1576 52.657 37.2619 50.5381L34.2536 47.5506L31.2453 44.5631C28.499 47.3285 26.5157 50.3356 25.765 53.5093C24.9753 56.8484 25.6279 60.1076 27.6805 62.8083C29.6265 65.3686 32.5858 67.1188 35.946 68.252C39.3418 69.3972 43.4434 70.0163 48.0922 70.1098L48.1774 65.8709ZM34.2536 47.5506L37.2618 50.5382C41.4819 46.2889 48.7304 42.2094 57.2901 39.2335C65.7889 36.2788 75.1236 34.5719 83.2241 34.7348L83.3093 30.4959L83.3945 26.2571C74.1038 26.0703 63.7615 28.0065 54.5056 31.2243C45.3107 34.4211 36.7268 39.0437 31.2454 44.563L34.2536 47.5506Z" fill="#A32BA3" mask="url(#path-4-outside-2_424_3168)"/>
</svg>
