<svg width="193" height="179" viewBox="0 0 193 179" fill="none" xmlns="http://www.w3.org/2000/svg">
<mask id="path-1-outside-1_438_3219" maskUnits="userSpaceOnUse" x="-0.34668" y="-0.347656" width="194" height="179" fill="black">
<rect fill="white" x="-0.34668" y="-0.347656" width="194" height="179"/>
<path d="M173.485 162.948C173.052 168.407 168.495 172.616 163.02 172.616H32.3008C26.9132 172.616 22.4004 168.538 21.8564 163.178L10.2969 49.2607H10.7002C7.91284 49.2606 5.65341 47.0012 5.65332 44.2139V10.7002C5.65332 7.91276 7.91279 5.65249 10.7002 5.65234H182.308C185.095 5.65247 187.354 7.91275 187.354 10.7002V44.2139C187.354 47.0012 185.095 49.2606 182.308 49.2607H182.51L173.485 162.948Z"/>
</mask>
<path d="M173.485 162.948C173.052 168.407 168.495 172.616 163.02 172.616H32.3008C26.9132 172.616 22.4004 168.538 21.8564 163.178L10.2969 49.2607H10.7002C7.91284 49.2606 5.65341 47.0012 5.65332 44.2139V10.7002C5.65332 7.91276 7.91279 5.65249 10.7002 5.65234H182.308C185.095 5.65247 187.354 7.91275 187.354 10.7002V44.2139C187.354 47.0012 185.095 49.2606 182.308 49.2607H182.51L173.485 162.948Z" fill="#965A28"/>
<path d="M173.485 162.948L167.85 162.501L167.85 162.501L173.485 162.948ZM32.3008 172.616L32.3008 178.269H32.3008V172.616ZM21.8564 163.178L16.2324 163.748L16.2324 163.749L21.8564 163.178ZM10.2969 49.2607V43.6078H4.04129L4.67282 49.8314L10.2969 49.2607ZM10.7002 49.2607V54.9137L10.7005 43.6078L10.7002 49.2607ZM5.65332 44.2139L0.000386235 44.2139L0.000386241 44.214L5.65332 44.2139ZM10.7002 5.65234L10.7002 -0.000590332L10.6999 -0.000590317L10.7002 5.65234ZM182.308 5.65234L182.308 -0.000590324H182.308V5.65234ZM187.354 44.2139L193.007 44.214V44.2139H187.354ZM182.308 49.2607L182.307 43.6078L182.308 54.9137V49.2607ZM182.51 49.2607L188.145 49.7081L188.629 43.6078H182.51V49.2607ZM173.485 162.948L167.85 162.501C167.65 165.02 165.547 166.963 163.02 166.963V172.616V178.269C171.444 178.269 178.454 171.794 179.121 163.396L173.485 162.948ZM163.02 172.616V166.963H32.3008V172.616V178.269H163.02V172.616ZM32.3008 172.616L32.3008 166.963C29.8146 166.963 27.7316 165.081 27.4805 162.607L21.8564 163.178L16.2324 163.749C17.0693 171.994 24.0118 178.269 32.3008 178.269L32.3008 172.616ZM21.8564 163.178L27.4805 162.607L15.9209 48.69L10.2969 49.2607L4.67282 49.8314L16.2324 163.748L21.8564 163.178ZM10.2969 49.2607V54.9137H10.7002V49.2607V43.6078H10.2969V49.2607ZM10.7002 49.2607L10.7005 43.6078C11.0348 43.6078 11.3062 43.8791 11.3063 44.2137L5.65332 44.2139L0.000386241 44.214C0.000568137 50.1234 4.79085 54.9134 10.6999 54.9137L10.7002 49.2607ZM5.65332 44.2139H11.3063V10.7002H5.65332H0.000386238V44.2139H5.65332ZM5.65332 10.7002H11.3063C11.3063 11.0336 11.036 11.3053 10.7005 11.3053L10.7002 5.65234L10.6999 -0.000590317C4.78956 -0.000289425 0.000386238 4.79187 0.000386238 10.7002H5.65332ZM10.7002 5.65234V11.3053H182.308V5.65234V-0.000590324H10.7002V5.65234ZM182.308 5.65234L182.307 11.3053C181.972 11.3053 181.702 11.0336 181.702 10.7002H187.354H193.007C193.007 4.79189 188.218 -0.000327342 182.308 -0.000590319L182.308 5.65234ZM187.354 10.7002H181.702V44.2139H187.354H193.007V10.7002H187.354ZM187.354 44.2139L181.702 44.2137C181.702 43.8791 181.973 43.6078 182.307 43.6078L182.308 49.2607L182.308 54.9137C188.217 54.9134 193.007 50.1234 193.007 44.214L187.354 44.2139ZM182.308 49.2607V54.9137H182.51V49.2607V43.6078H182.308V49.2607ZM182.51 49.2607L176.875 48.8134L167.85 162.501L173.485 162.948L179.121 163.396L188.145 49.7081L182.51 49.2607Z" fill="#785028" mask="url(#path-1-outside-1_438_3219)"/>
<line x1="7.26855" y1="52.0876" x2="185.74" y2="52.0876" stroke="#785028" stroke-width="5.65293"/>
<path d="M15.0957 14.6172V34.5102" stroke="#C5E1EE" stroke-width="5" stroke-linecap="round"/>
<path d="M24.0391 65.0469C24.0391 66.9833 24.1966 71.5998 24.8195 73.9296C25.8158 77.6565 26.0061 79.3063 26.3037 81.247C26.8858 85.0432 27.7568 89.8634 28.052 91.6967C28.3828 93.7513 28.7877 95.5673 29.4376 98.7415C29.8234 100.626 30.0886 102.457 30.5488 104.857C31.0484 107.463 31.2015 110.024 31.4016 112.396C31.5812 114.523 31.7059 117.272 31.9662 119.86C32.1629 121.816 32.5429 123.502 33.2008 127.95C33.769 131.792 33.9077 133.686 34.7834 137.006C35.7063 140.504 36.0146 142.355 36.1606 145.655C36.3108 149.05 36.5185 150.645 36.7394 152.403C36.787 152.885 36.8219 153.399 36.854 154.195C36.8861 154.992 36.9143 156.055 36.9435 157.15" stroke="#C5E1EE" stroke-width="5" stroke-linecap="round"/>
</svg>
