<svg width="178" height="178" viewBox="0 0 178 178" fill="none" xmlns="http://www.w3.org/2000/svg">
<mask id="path-1-outside-1_387_5532" maskUnits="userSpaceOnUse" x="-0.242676" y="-0.246094" width="179" height="179" fill="black">
<rect fill="white" x="-0.242676" y="-0.246094" width="179" height="179"/>
<path d="M86.6355 30.4718C87.3321 32.41 90.3306 32.3857 90.9957 30.4364C96.478 14.3689 104.436 3.40816 110.191 4.8877C113.194 5.66005 115.087 9.68961 115.792 15.7424C116.001 17.5325 118.263 18.4429 119.654 17.2966C124.356 13.4202 128.514 11.8264 131.214 13.3496C137.257 16.7584 133.718 34.4839 123.308 52.9404C123.102 53.3066 123.521 53.7168 123.883 53.5029C142.127 42.7239 159.778 38.8282 163.307 44.8018C164.884 47.4712 163.373 51.6589 159.593 56.4372C158.474 57.8505 159.43 60.0938 161.224 60.2665C167.29 60.8502 171.356 62.6628 172.189 65.6494C173.784 71.373 162.985 79.5509 147.031 85.3555C145.096 86.0597 145.132 89.0582 147.083 89.7156C163.371 95.2019 174.528 103.246 173.036 109.049C172.272 112.015 168.331 113.898 162.402 114.623C160.613 114.842 159.711 117.108 160.865 118.492C164.847 123.266 166.5 127.493 164.958 130.228C161.549 136.271 143.824 132.731 125.368 122.321C125.098 122.169 124.798 122.477 124.957 122.742C125.102 122.983 125.246 123.226 125.39 123.469C136.169 141.712 140.065 159.363 134.091 162.893C131.455 164.45 127.336 162.996 122.631 159.316C121.211 158.206 118.971 159.17 118.809 160.965C118.249 167.155 116.428 171.312 113.405 172.155C106.721 174.018 96.6904 158.981 91.0005 138.57C90.6998 137.492 89.0481 137.511 88.7731 138.597C88.7388 138.732 88.7043 138.867 88.6694 139.003C83.3914 159.524 73.6654 174.76 66.9458 173.032C63.9433 172.26 62.0495 168.231 61.3437 162.18C61.1349 160.39 58.8728 159.48 57.4823 160.626C52.7809 164.502 48.624 166.096 45.9233 164.573C39.88 161.165 43.4189 143.439 53.8286 124.982C54.0355 124.616 53.6161 124.204 53.2534 124.418C35.0107 135.196 17.3608 139.092 13.8306 133.119C12.2535 130.45 13.7625 126.262 17.5421 121.483C18.66 120.07 17.7043 117.827 15.9105 117.654C9.84696 117.07 5.78168 115.258 4.94873 112.272C3.08563 105.589 18.122 95.5582 38.5337 89.8682C38.6688 89.8305 38.8038 89.7931 38.9387 89.7561C40.0181 89.4593 40.0046 87.8062 38.9204 87.5273C18.3986 82.2492 3.16326 72.5233 4.89111 65.8037C5.67298 62.764 9.79207 60.8596 15.969 60.1745C17.7601 59.9758 18.6789 57.7172 17.5406 56.3202C13.7681 51.6903 12.2317 47.6029 13.7358 44.9355C17.1444 38.8922 34.869 42.432 53.3257 52.8418C53.5724 52.981 53.8182 53.1206 54.0628 53.2606C54.3306 53.414 54.6331 53.1075 54.4761 52.8418C43.6971 34.5984 39.8015 16.9476 45.7749 13.418C48.4771 11.8216 52.7357 13.3883 57.5875 17.2717C58.9944 18.3978 61.2412 17.4504 61.4242 15.6576C62.0305 9.71556 63.8347 5.73846 66.7847 4.91602C72.5558 3.30724 80.8226 14.299 86.6355 30.4718Z"/>
</mask>
<path d="M86.6355 30.4718C87.3321 32.41 90.3306 32.3857 90.9957 30.4364C96.478 14.3689 104.436 3.40816 110.191 4.8877C113.194 5.66005 115.087 9.68961 115.792 15.7424C116.001 17.5325 118.263 18.4429 119.654 17.2966C124.356 13.4202 128.514 11.8264 131.214 13.3496C137.257 16.7584 133.718 34.4839 123.308 52.9404C123.102 53.3066 123.521 53.7168 123.883 53.5029C142.127 42.7239 159.778 38.8282 163.307 44.8018C164.884 47.4712 163.373 51.6589 159.593 56.4372C158.474 57.8505 159.43 60.0938 161.224 60.2665C167.29 60.8502 171.356 62.6628 172.189 65.6494C173.784 71.373 162.985 79.5509 147.031 85.3555C145.096 86.0597 145.132 89.0582 147.083 89.7156C163.371 95.2019 174.528 103.246 173.036 109.049C172.272 112.015 168.331 113.898 162.402 114.623C160.613 114.842 159.711 117.108 160.865 118.492C164.847 123.266 166.5 127.493 164.958 130.228C161.549 136.271 143.824 132.731 125.368 122.321C125.098 122.169 124.798 122.477 124.957 122.742C125.102 122.983 125.246 123.226 125.39 123.469C136.169 141.712 140.065 159.363 134.091 162.893C131.455 164.45 127.336 162.996 122.631 159.316C121.211 158.206 118.971 159.17 118.809 160.965C118.249 167.155 116.428 171.312 113.405 172.155C106.721 174.018 96.6904 158.981 91.0005 138.57C90.6998 137.492 89.0481 137.511 88.7731 138.597C88.7388 138.732 88.7043 138.867 88.6694 139.003C83.3914 159.524 73.6654 174.76 66.9458 173.032C63.9433 172.26 62.0495 168.231 61.3437 162.18C61.1349 160.39 58.8728 159.48 57.4823 160.626C52.7809 164.502 48.624 166.096 45.9233 164.573C39.88 161.165 43.4189 143.439 53.8286 124.982C54.0355 124.616 53.6161 124.204 53.2534 124.418C35.0107 135.196 17.3608 139.092 13.8306 133.119C12.2535 130.45 13.7625 126.262 17.5421 121.483C18.66 120.07 17.7043 117.827 15.9105 117.654C9.84696 117.07 5.78168 115.258 4.94873 112.272C3.08563 105.589 18.122 95.5582 38.5337 89.8682C38.6688 89.8305 38.8038 89.7931 38.9387 89.7561C40.0181 89.4593 40.0046 87.8062 38.9204 87.5273C18.3986 82.2492 3.16326 72.5233 4.89111 65.8037C5.67298 62.764 9.79207 60.8596 15.969 60.1745C17.7601 59.9758 18.6789 57.7172 17.5406 56.3202C13.7681 51.6903 12.2317 47.6029 13.7358 44.9355C17.1444 38.8922 34.869 42.432 53.3257 52.8418C53.5724 52.981 53.8182 53.1206 54.0628 53.2606C54.3306 53.414 54.6331 53.1075 54.4761 52.8418C43.6971 34.5984 39.8015 16.9476 45.7749 13.418C48.4771 11.8216 52.7357 13.3883 57.5875 17.2717C58.9944 18.3978 61.2412 17.4504 61.4242 15.6576C62.0305 9.71556 63.8347 5.73846 66.7847 4.91602C72.5558 3.30724 80.8226 14.299 86.6355 30.4718Z" fill="#FFC943"/>
<path d="M110.191 4.8877L111.375 0.283996L111.375 0.283894L110.191 4.8877ZM131.214 13.3496L133.55 9.20936L133.55 9.20922L131.214 13.3496ZM123.308 52.9404L127.448 55.2757L127.448 55.2757L123.308 52.9404ZM123.883 53.5029L121.465 49.4104L121.465 49.4104L123.883 53.5029ZM163.307 44.8018L167.4 42.3839L167.4 42.3837L163.307 44.8018ZM172.189 65.6494L176.768 64.3732L176.768 64.3727L172.189 65.6494ZM173.036 109.049L177.639 110.234L177.639 110.233L173.036 109.049ZM164.958 130.228L169.098 132.563L169.098 132.563L164.958 130.228ZM125.368 122.321L123.032 126.462H123.032L125.368 122.321ZM125.39 123.469L129.483 121.051L129.483 121.051L125.39 123.469ZM134.091 162.893L136.509 166.985L136.509 166.985L134.091 162.893ZM113.405 172.155L114.681 176.734L114.681 176.734L113.405 172.155ZM91.0005 138.57L86.4215 139.847V139.847L91.0005 138.57ZM88.6694 139.003L93.2731 140.187L88.6694 139.003ZM66.9458 173.032L65.7618 177.636L65.7623 177.636L66.9458 173.032ZM45.9233 164.573L43.5881 168.714L43.5885 168.714L45.9233 164.573ZM53.8286 124.982L49.6882 122.647L49.6882 122.647L53.8286 124.982ZM53.2534 124.418L55.6715 128.511L55.6715 128.511L53.2534 124.418ZM13.8306 133.119L9.738 135.537L9.73843 135.538L13.8306 133.119ZM4.94873 112.272L0.369778 113.549L0.370021 113.55L4.94873 112.272ZM38.5337 89.8682L37.2573 85.2892L37.2573 85.2892L38.5337 89.8682ZM38.9204 87.5273L37.7364 92.1311L37.7364 92.1311L38.9204 87.5273ZM4.89111 65.8037L0.287432 64.6196L0.28734 64.6199L4.89111 65.8037ZM13.7358 44.9355L9.59545 42.6003L9.59528 42.6006L13.7358 44.9355ZM53.3257 52.8418L55.6609 48.7014L55.6609 48.7014L53.3257 52.8418ZM54.4761 52.8418L50.3835 55.2599L50.3835 55.2599L54.4761 52.8418ZM45.7749 13.418L43.357 9.32528L43.3567 9.32549L45.7749 13.418ZM66.7847 4.91602L65.5082 0.337063L65.5081 0.337111L66.7847 4.91602ZM57.5875 17.2717L60.5579 13.5605L57.5875 17.2717ZM61.4242 15.6576L56.6952 15.1751L61.4242 15.6576ZM54.0628 53.2606L56.4249 49.1355L54.0628 53.2606ZM15.969 60.1745L15.4449 55.4499L15.969 60.1745ZM17.5421 121.483L21.2703 124.432L17.5421 121.483ZM15.9105 117.654L15.4549 122.386L15.9105 117.654ZM122.631 159.316L119.703 163.061L122.631 159.316ZM118.809 160.965L123.543 161.394L118.809 160.965ZM124.957 122.742L129.033 120.295L124.957 122.742ZM162.402 114.623L162.979 119.342L162.402 114.623ZM160.865 118.492L157.215 121.536L160.865 118.492ZM159.593 56.4372L155.865 53.4876L159.593 56.4372ZM161.224 60.2665L160.769 64.9981L161.224 60.2665ZM61.3437 162.18L66.0652 161.629L61.3437 162.18ZM57.4823 160.626L60.5062 164.294L57.4823 160.626ZM115.792 15.7424L111.071 16.2926L115.792 15.7424ZM119.654 17.2966L116.63 13.6287L119.654 17.2966ZM88.7731 138.597L93.3811 139.764L88.7731 138.597ZM38.9387 89.7561L40.1988 94.3395L38.9387 89.7561ZM147.031 85.3555L148.656 89.8225L147.031 85.3555ZM147.083 89.7156L148.601 85.2108L147.083 89.7156ZM86.6355 30.4718L91.1088 28.864L86.6355 30.4718ZM90.9957 30.4364L95.4946 31.9715C98.1364 24.229 101.299 17.9612 104.306 13.9187C105.819 11.8833 107.135 10.6276 108.132 9.97723C109.131 9.32599 109.323 9.57256 109.007 9.4915L110.191 4.8877L111.375 0.283894C108.182 -0.536933 105.221 0.524909 102.938 2.01481C100.653 3.50552 98.5573 5.71691 96.677 8.24511C92.8951 13.3301 89.3374 20.5764 86.4969 28.9014L90.9957 30.4364ZM110.191 4.8877L109.007 9.49139C108.676 9.40621 109.007 9.27973 109.608 10.4727C110.2 11.6494 110.753 13.5644 111.071 16.2926L115.792 15.7424L120.514 15.1922C120.127 11.8676 119.38 8.74147 118.099 6.19705C116.826 3.66897 114.709 1.14154 111.375 0.283996L110.191 4.8877ZM119.654 17.2966L122.678 20.9644C124.797 19.2174 126.522 18.2194 127.765 17.7814C129.025 17.3372 129.177 17.6578 128.879 17.49L131.214 13.3496L133.55 9.20922C130.551 7.51815 127.274 7.87404 124.604 8.81508C121.917 9.76225 119.213 11.4994 116.63 13.6287L119.654 17.2966ZM131.214 13.3496L128.879 17.4899C128.545 17.3016 129.031 17.3019 129.289 19.0662C129.535 20.751 129.429 23.2693 128.77 26.5713C127.461 33.1218 124.195 41.692 119.168 50.6052L123.308 52.9404L127.448 55.2757C132.831 45.7323 136.539 36.2115 138.093 28.433C138.864 24.5704 139.16 20.8647 138.696 17.6904C138.243 14.5957 136.905 11.102 133.55 9.20936L131.214 13.3496ZM123.883 53.5029L126.301 57.5955C135.112 52.39 143.615 48.9516 150.137 47.5119C153.426 46.7862 155.941 46.6293 157.631 46.8418C159.4 47.0643 159.41 47.5497 159.215 47.2198L163.307 44.8018L167.4 42.3837C165.44 39.067 161.92 37.7993 158.817 37.409C155.634 37.0087 151.935 37.3794 148.089 38.2283C140.343 39.9378 130.898 43.8368 121.465 49.4104L123.883 53.5029ZM163.307 44.8018L159.214 47.2196C159.04 46.9251 159.364 47.0698 158.945 48.3381C158.532 49.5889 157.569 51.3339 155.865 53.4876L159.593 56.4372L163.32 59.3868C165.397 56.7622 167.08 54.0241 167.973 51.3192C168.86 48.6317 169.151 45.3478 167.4 42.3839L163.307 44.8018ZM161.224 60.2665L160.769 64.9981C163.502 65.2612 165.428 65.7756 166.616 66.3445C167.821 66.9213 167.702 67.2552 167.61 66.9261L172.189 65.6494L176.768 64.3727C175.843 61.057 173.274 58.9914 170.721 57.7693C168.152 56.5392 165.011 55.8555 161.679 55.5348L161.224 60.2665ZM172.189 65.6494L167.61 66.9256C167.523 66.612 167.773 66.799 167.142 67.8102C166.512 68.8201 165.283 70.1611 163.278 71.7157C159.297 74.8031 153.094 78.0913 145.406 80.8884L147.031 85.3555L148.656 89.8225C156.923 86.815 164.096 83.1121 169.104 79.2285C171.594 77.2976 173.763 75.1581 175.207 72.8435C176.651 70.5302 177.653 67.5486 176.768 64.3732L172.189 65.6494ZM147.083 89.7156L145.566 94.2205C153.416 96.8647 159.788 100.051 163.905 103.089C165.978 104.618 167.263 105.952 167.931 106.966C168.601 107.984 168.35 108.183 168.432 107.865L173.036 109.049L177.639 110.233C178.467 107.013 177.381 104.031 175.87 101.737C174.357 99.4393 172.114 97.331 169.549 95.4384C164.389 91.6314 157.038 88.0529 148.601 85.2108L147.083 89.7156ZM173.036 109.049L168.432 107.864C168.516 107.537 168.642 107.856 167.491 108.445C166.351 109.028 164.49 109.579 161.825 109.905L162.402 114.623L162.979 119.342C166.243 118.942 169.317 118.189 171.821 116.908C174.314 115.633 176.792 113.526 177.639 110.234L173.036 109.049ZM160.865 118.492L157.215 121.536C159.014 123.694 160.051 125.458 160.51 126.734C160.977 128.033 160.647 128.194 160.817 127.892L164.958 130.228L169.098 132.563C170.81 129.527 170.425 126.207 169.456 123.515C168.478 120.8 166.698 118.063 164.516 115.447L160.865 118.492ZM164.958 130.228L160.817 127.892C161.005 127.558 161.005 128.044 159.241 128.302C157.556 128.548 155.038 128.442 151.736 127.783C145.186 126.475 136.616 123.208 127.703 118.181L125.368 122.321L123.032 126.462C132.576 131.844 142.096 135.552 149.875 137.106C153.737 137.877 157.443 138.173 160.617 137.709C163.712 137.256 167.205 135.918 169.098 132.563L164.958 130.228ZM124.957 122.742L120.882 125.189C121.021 125.421 121.16 125.653 121.298 125.887L125.39 123.469L129.483 121.051C129.333 120.798 129.183 120.546 129.033 120.295L124.957 122.742ZM125.39 123.469L121.298 125.887C126.503 134.697 129.941 143.2 131.381 149.723C132.107 153.011 132.264 155.527 132.051 157.216C131.829 158.985 131.343 158.995 131.673 158.8L134.091 162.893L136.509 166.985C139.826 165.025 141.094 161.505 141.484 158.402C141.884 155.219 141.514 151.52 140.665 147.674C138.955 139.928 135.056 130.484 129.483 121.051L125.39 123.469ZM134.091 162.893L131.673 158.8C131.964 158.628 131.828 158.942 130.598 158.545C129.38 158.152 127.674 157.225 125.559 155.572L122.631 159.316L119.703 163.061C122.293 165.087 124.999 166.727 127.676 167.592C130.34 168.452 133.582 168.715 136.509 166.985L134.091 162.893ZM118.809 160.965L114.075 160.537C113.822 163.334 113.307 165.314 112.73 166.541C112.142 167.789 111.795 167.669 112.128 167.576L113.405 172.155L114.681 176.734C118.038 175.798 120.113 173.179 121.331 170.59C122.56 167.98 123.236 164.786 123.543 161.394L118.809 160.965ZM113.405 172.155L112.129 167.576C112.498 167.473 112.154 167.816 110.724 166.751C109.359 165.734 107.653 163.878 105.784 161.077C102.078 155.521 98.3273 147.151 95.5794 137.294L91.0005 138.57L86.4215 139.847C89.3636 150.401 93.4738 159.755 97.8757 166.353C100.062 169.63 102.472 172.46 105.045 174.376C107.554 176.244 110.97 177.768 114.681 176.734L113.405 172.155ZM88.7731 138.597L84.1651 137.429C84.1323 137.559 84.0991 137.689 84.0657 137.819L88.6694 139.003L93.2731 140.187C93.3094 140.046 93.3454 139.905 93.3811 139.764L88.7731 138.597ZM88.6694 139.003L84.0657 137.819C81.5168 147.729 77.9358 156.173 74.3415 161.803C72.5297 164.641 70.8619 166.531 69.517 167.575C68.1088 168.669 67.7583 168.333 68.1293 168.428L66.9458 173.032L65.7623 177.636C69.4931 178.595 72.8782 177.002 75.3484 175.084C77.882 173.116 80.2355 170.239 82.3549 166.919C86.623 160.233 90.544 150.798 93.2731 140.187L88.6694 139.003ZM66.9458 173.032L68.1298 168.429C68.4608 168.514 68.1296 168.64 67.5288 167.447C66.9363 166.271 66.3833 164.357 66.0652 161.629L61.3437 162.18L56.6221 162.731C57.0099 166.055 57.7567 169.18 59.0381 171.724C60.3114 174.252 62.4283 176.779 65.7618 177.636L66.9458 173.032ZM57.4823 160.626L54.4585 156.958C52.3395 158.705 50.6142 159.703 49.3719 160.141C48.1122 160.585 47.9606 160.265 48.2581 160.433L45.9233 164.573L43.5885 168.714C46.5868 170.405 49.8639 170.048 52.5332 169.107C55.2198 168.16 57.9237 166.423 60.5062 164.294L57.4823 160.626ZM45.9233 164.573L48.2586 160.433C48.5923 160.621 48.1067 160.621 47.8486 158.857C47.6021 157.172 47.7083 154.654 48.3676 151.352C49.6755 144.801 52.9419 136.231 57.969 127.318L53.8286 124.982L49.6882 122.647C44.3056 132.191 40.5977 141.712 39.0446 149.49C38.2733 153.353 37.9773 157.059 38.4417 160.233C38.8944 163.328 40.2327 166.821 43.5881 168.714L45.9233 164.573ZM53.2534 124.418L50.8354 120.325C42.0255 125.531 33.5231 128.969 27.0003 130.408C23.7124 131.134 21.1968 131.291 19.5073 131.079C17.7381 130.856 17.7278 130.371 17.9227 130.7L13.8306 133.119L9.73843 135.538C11.6984 138.854 15.2182 140.121 18.3213 140.511C21.5042 140.912 25.2031 140.541 29.0493 139.692C36.7948 137.983 46.2387 134.084 55.6715 128.511L53.2534 124.418ZM13.8306 133.119L17.9231 130.701C18.0968 130.995 17.7734 130.85 18.1918 129.581C18.6045 128.331 19.567 126.586 21.2703 124.432L17.5421 121.483L13.8138 118.534C11.7376 121.159 10.0558 123.898 9.16336 126.603C8.27667 129.291 7.98728 132.574 9.738 135.537L13.8306 133.119ZM15.9105 117.654L16.3662 112.923C13.6334 112.659 11.7085 112.145 10.5207 111.576C9.31638 111 9.43568 110.666 9.52744 110.995L4.94873 112.272L0.370021 113.55C1.29473 116.865 3.86315 118.93 6.41562 120.152C8.98458 121.381 12.1241 122.065 15.4549 122.386L15.9105 117.654ZM4.94873 112.272L9.52768 110.996C9.63057 111.365 9.28738 111.022 10.3523 109.592C11.3694 108.226 13.2251 106.521 16.0261 104.652C21.583 100.945 29.9527 97.195 39.8101 94.4471L38.5337 89.8682L37.2573 85.2892C26.703 88.2314 17.3487 92.3415 10.7502 96.7434C7.47357 98.9292 4.64382 101.34 2.72764 103.913C0.859414 106.421 -0.664656 109.838 0.369778 113.549L4.94873 112.272ZM38.5337 89.8682L39.8101 94.4471C39.9398 94.411 40.0693 94.3751 40.1988 94.3395L38.9387 89.7561L37.6785 85.1726C37.5382 85.2112 37.3978 85.25 37.2573 85.2892L38.5337 89.8682ZM38.9204 87.5273L40.1045 82.9236C30.1938 80.3747 21.7503 76.7937 16.1199 73.1994C13.2818 71.3876 11.3921 69.7198 10.3477 68.375C9.25414 66.9668 9.5903 66.6164 9.49489 66.9875L4.89111 65.8037L0.28734 64.6199C-0.671999 68.3508 0.920634 71.736 2.839 74.2062C4.80663 76.7399 7.68435 79.0934 11.0043 81.2128C17.6901 85.4809 27.1251 89.4019 37.7364 92.1311L38.9204 87.5273ZM4.89111 65.8037L9.49479 66.9879C9.40864 67.3228 9.28232 66.9777 10.5182 66.3651C11.7327 65.763 13.7016 65.2087 16.493 64.899L15.969 60.1745L15.4449 55.4499C12.0595 55.8254 8.88034 56.5659 6.29562 57.8472C3.73225 59.1179 1.15545 61.2449 0.287432 64.6196L4.89111 65.8037ZM17.5406 56.3202L21.2257 53.3175C19.5303 51.2368 18.5703 49.55 18.1528 48.3407C17.7311 47.1192 18.0419 46.9769 17.8764 47.2705L13.7358 44.9355L9.59528 42.6006C7.9256 45.5615 8.25256 48.7966 9.16615 51.443C10.084 54.1018 11.7783 56.7736 13.8554 59.3228L17.5406 56.3202ZM13.7358 44.9355L17.8762 47.2708C17.688 47.6045 17.6882 47.119 19.4522 46.861C21.1368 46.6146 23.6549 46.7208 26.9568 47.3802C33.5071 48.6884 42.0771 51.955 50.9905 56.9822L53.3257 52.8418L55.6609 48.7014C46.1175 43.3188 36.5969 39.6106 28.8186 38.0573C24.9562 37.2859 21.2505 36.9897 18.0763 37.454C14.9815 37.9067 11.4879 39.2449 9.59545 42.6003L13.7358 44.9355ZM53.3257 52.8418L50.9905 56.9822C51.2288 57.1166 51.4656 57.2511 51.7007 57.3858L54.0628 53.2606L56.4249 49.1355C56.1708 48.99 55.9161 48.8453 55.6609 48.7014L53.3257 52.8418ZM54.4761 52.8418L58.5686 50.4237C53.3631 41.6135 49.9248 33.1107 48.4852 26.5877C47.7595 23.2997 47.6026 20.7841 47.815 19.0947C48.0375 17.3255 48.523 17.3155 48.1931 17.5104L45.7749 13.418L43.3567 9.32549C40.0401 11.2852 38.7725 14.8051 38.3823 17.9084C37.982 21.0913 38.3526 24.7904 39.2015 28.6367C40.9111 36.3824 44.81 45.8267 50.3835 55.2599L54.4761 52.8418ZM45.7749 13.418L48.1928 17.5107C47.8947 17.6867 48.049 17.3533 49.3559 17.7942C50.6403 18.2274 52.4244 19.2278 54.6171 20.9829L57.5875 17.2717L60.5579 13.5605C57.8989 11.4322 55.1277 9.70759 52.3943 8.78568C49.6835 7.87137 46.3573 7.55279 43.357 9.32528L45.7749 13.418ZM61.4242 15.6576L66.1531 16.1402C66.4256 13.4698 66.9396 11.5979 67.4996 10.4475C68.0653 9.28533 68.3859 9.40442 68.0613 9.49492L66.7847 4.91602L65.5081 0.337111C62.2335 1.25005 60.177 3.76891 58.9515 6.28644C57.7203 8.8157 57.029 11.9034 56.6952 15.1751L61.4242 15.6576ZM66.7847 4.91602L68.0611 9.49497C67.7446 9.5832 67.9384 9.32815 68.9695 9.97784C69.9968 10.6251 71.3559 11.8825 72.9269 13.9244C76.0463 17.979 79.3605 24.2849 82.1621 32.0796L86.6355 30.4718L91.1088 28.864C88.0976 20.4859 84.372 13.2095 80.462 8.12727C78.5182 5.60072 76.3653 3.40097 74.0378 1.93437C71.714 0.470173 68.7103 -0.555562 65.5082 0.337063L66.7847 4.91602ZM57.5875 17.2717L54.6171 20.9829C58.9786 24.4738 65.59 21.6592 66.1531 16.1402L61.4242 15.6576L56.6952 15.1751C56.8071 14.0786 57.5389 13.423 58.1202 13.1782C58.7025 12.933 59.6909 12.8665 60.5579 13.5605L57.5875 17.2717ZM54.0628 53.2606L51.7007 57.3858C56.2009 59.9626 61.2092 54.8929 58.5686 50.4237L54.4761 52.8418L50.3835 55.2599C48.0569 51.3221 52.4604 46.8653 56.4249 49.1355L54.0628 53.2606ZM15.969 60.1745L16.493 64.899C22.0451 64.2832 24.7301 57.6184 21.2257 53.3175L17.5406 56.3202L13.8554 59.3228C13.1592 58.4684 13.2132 57.4873 13.4511 56.9033C13.6894 56.3182 14.3412 55.5723 15.4449 55.4499L15.969 60.1745ZM17.5421 121.483L21.2703 124.432C24.7237 120.066 21.9076 113.456 16.3662 112.923L15.9105 117.654L15.4549 122.386C14.3536 122.28 13.6924 121.548 13.445 120.967C13.1976 120.386 13.1275 119.402 13.8138 118.534L17.5421 121.483ZM122.631 159.316L125.559 155.572C121.188 152.154 114.578 154.973 114.075 160.537L118.809 160.965L123.543 161.394C123.443 162.5 122.71 163.167 122.13 163.417C121.551 163.666 120.571 163.74 119.703 163.061L122.631 159.316ZM125.368 122.321L127.703 118.181C123.198 115.64 118.2 120.724 120.882 125.189L124.957 122.742L129.033 120.295C131.396 124.231 126.998 128.699 123.032 126.462L125.368 122.321ZM162.402 114.623L161.825 109.905C156.317 110.578 153.636 117.246 157.215 121.536L160.865 118.492L164.516 115.447C165.227 116.3 165.18 117.289 164.947 117.877C164.714 118.463 164.073 119.208 162.979 119.342L162.402 114.623ZM159.593 56.4372L155.865 53.4876C152.41 57.8539 155.227 64.4648 160.769 64.9981L161.224 60.2665L161.679 55.5348C162.781 55.6408 163.442 56.3731 163.689 56.9539C163.937 57.5347 164.007 58.519 163.32 59.3868L159.593 56.4372ZM61.3437 162.18L66.0652 161.629C65.4202 156.1 58.7542 153.417 54.4585 156.958L57.4823 160.626L60.5062 164.294C59.6525 164.998 58.667 164.947 58.0814 164.712C57.4958 164.476 56.7503 163.83 56.6221 162.731L61.3437 162.18ZM115.792 15.7424L111.071 16.2926C111.715 21.823 118.382 24.5057 122.678 20.9644L119.654 17.2966L116.63 13.6287C117.484 12.9249 118.469 12.9752 119.055 13.2109C119.64 13.4466 120.386 14.0931 120.514 15.1922L115.792 15.7424ZM91.0005 138.57L95.5794 137.294C94.726 134.232 91.9584 132.993 89.8205 133.019C87.6826 133.044 84.9456 134.349 84.1651 137.429L88.7731 138.597L93.3811 139.764C92.8756 141.76 91.1019 142.511 89.9338 142.525C88.7657 142.539 86.9743 141.83 86.4215 139.847L91.0005 138.57ZM38.9387 89.7561L40.1988 94.3395C43.2652 93.4965 44.5117 90.7313 44.4942 88.5961C44.4768 86.4608 43.1851 83.7159 40.1044 82.9236L38.9204 87.5273L37.7364 92.1311C35.7399 91.6176 34.997 89.8387 34.9875 88.6738C34.978 87.5091 35.6915 85.7189 37.6785 85.1726L38.9387 89.7561ZM147.031 85.3555L145.406 80.8884C142.142 82.076 140.816 85.1305 140.846 87.6102C140.876 90.09 142.274 93.1117 145.566 94.2205L147.083 89.7156L148.601 85.2108C149.941 85.6621 150.345 86.8559 150.353 87.4959C150.36 88.136 149.985 89.3391 148.656 89.8225L147.031 85.3555ZM53.8286 124.982L57.969 127.318C60.5563 122.73 55.4006 117.628 50.8354 120.325L53.2534 124.418L55.6715 128.511C51.8316 130.779 47.5148 126.501 49.6882 122.647L53.8286 124.982ZM123.308 52.9404L119.168 50.6052C116.557 55.2345 121.779 60.2675 126.301 57.5955L123.883 53.5029L121.465 49.4104C125.264 47.1661 129.646 51.3788 127.448 55.2757L123.308 52.9404ZM90.9957 30.4364L86.4969 28.9014C86.9534 27.5633 88.1488 27.1637 88.7889 27.1585C89.429 27.1534 90.6306 27.5335 91.1088 28.864L86.6355 30.4718L82.1621 32.0796C83.3369 35.3483 86.3861 36.6854 88.8659 36.6653C91.3458 36.6452 94.3729 35.2588 95.4946 31.9715L90.9957 30.4364Z" fill="#FFB600" mask="url(#path-1-outside-1_387_5532)"/>
<circle cx="89.0111" cy="89.0131" r="32.3547" transform="rotate(-15.5764 89.0111 89.0131)" fill="#564620" stroke="#896B22" stroke-width="4.72424"/>
</svg>
